# xmcd
#
# Track frame offsets: 
#        150
#        15165
#        28619
#        42420
#        54173
#        68792
#        82263
#        95854
#        108820
#        122607
#        137141
#        152438
#        166792
#        179600
#        192512
#        205791
#        220112
#        231967
#        246098
#        257438
#        270287
#        283493
#
# Disc length: 3953 seconds
#
# Revision: 3
# Processed by: cddbd v1.5.2PL0 Copyright (c) Steve Scherf et al.
# Submitted via: ExactAudioCopy v0.95b3
#
DISCID=310f6f16
DTITLE=Roosevelt Sykes - The Ultimate Jazz Archive 15 (Blues)
DYEAR=2005
DGENRE=Blues
TTITLE0=Jivin' The Jive
TTITLE1=Mellow Queen
TTITLE2=Strange Woman
TTITLE3=This Tavern Boogie
TTITLE4=Anytime Is The Right Time
TTITLE5=The Honeydripper
TTITLE6=Date Bait
TTITLE7=Peepin' Tom
TTITLE8=Sunny Road
TTITLE9=Living In A Different World
TTITLE10=Flames Of Jive
TTITLE11=Homesick Blues
TTITLE12=I'm Her Honeydripper
TTITLE13=Bobby Sox Blues
TTITLE14=Kilroy's In Town
TTITLE15=Walkin' And Drinkin'
TTITLE16=High As A Georgia Pine
TTITLE17=Until The Cows Come Home
TTITLE18=Southern Blues
TTITLE19=My Baby Is Gone
TTITLE20=Rock It
TTITLE21=Drivin' Wheel
EXTD=YEAR: 2005
EXTT0=
EXTT1=
EXTT2=
EXTT3=
EXTT4=
EXTT5=
EXTT6=
EXTT7=
EXTT8=
EXTT9=
EXTT10=
EXTT11=
EXTT12=
EXTT13=
EXTT14=
EXTT15=
EXTT16=
EXTT17=
EXTT18=
EXTT19=
EXTT20=
EXTT21=
PLAYORDER=
